<svg id="visual" viewBox="0 0 1920 1080" width="1920" height="1080" xmlns="http://www.w3.org/2000/svg" xmlns:xlink="http://www.w3.org/1999/xlink" version="1.1"><rect x="0" y="0" width="1920" height="1080" fill="#002233"></rect><path d="M0 109L45.7 117.7C91.3 126.3 182.7 143.7 274.2 150.5C365.7 157.3 457.3 153.7 548.8 146.2C640.3 138.7 731.7 127.3 823 127.3C914.3 127.3 1005.7 138.7 1097 160.2C1188.3 181.7 1279.7 213.3 1371.2 217C1462.7 220.7 1554.3 196.3 1645.8 170.7C1737.3 145 1828.7 118 1874.3 104.5L1920 91L1920 0L1874.3 0C1828.7 0 1737.3 0 1645.8 0C1554.3 0 1462.7 0 1371.2 0C1279.7 0 1188.3 0 1097 0C1005.7 0 914.3 0 823 0C731.7 0 640.3 0 548.8 0C457.3 0 365.7 0 274.2 0C182.7 0 91.3 0 45.7 0L0 0Z" fill="#407bd3" stroke-linecap="round" stroke-linejoin="miter"></path></svg>