<svg id="visual" viewBox="0 0 1080 1920" width="1080" height="1920" xmlns="http://www.w3.org/2000/svg" xmlns:xlink="http://www.w3.org/1999/xlink" version="1.1"><rect x="0" y="0" width="1080" height="1920" fill="#002233"></rect><path d="M0 291L25.7 291.5C51.3 292 102.7 293 154.2 285.3C205.7 277.7 257.3 261.3 308.8 241C360.3 220.7 411.7 196.3 463 174.8C514.3 153.3 565.7 134.7 617 152.5C668.3 170.3 719.7 224.7 771.2 243.5C822.7 262.3 874.3 245.7 925.8 224.7C977.3 203.7 1028.7 178.3 1054.3 165.7L1080 153L1080 0L1054.3 0C1028.7 0 977.3 0 925.8 0C874.3 0 822.7 0 771.2 0C719.7 0 668.3 0 617 0C565.7 0 514.3 0 463 0C411.7 0 360.3 0 308.8 0C257.3 0 205.7 0 154.2 0C102.7 0 51.3 0 25.7 0L0 0Z" fill="#407bd3" stroke-linecap="round" stroke-linejoin="miter"></path></svg>